<?xml version="1.0" encoding="UTF-8" standalone="no"?>
<!DOCTYPE svg PUBLIC "-//W3C//DTD SVG 1.1//EN" "http://www.w3.org/Graphics/SVG/1.1/DTD/svg11.dtd">
<svg width="100%" height="100%" viewBox="0 0 1080 1080" version="1.1" xmlns="http://www.w3.org/2000/svg" xmlns:xlink="http://www.w3.org/1999/xlink" xml:space="preserve" xmlns:serif="http://www.serif.com/" style="fill-rule:evenodd;clip-rule:evenodd;stroke-linecap:round;stroke-linejoin:round;stroke-miterlimit:1.5;">
    <g id="Instagram">
        <g transform="matrix(0.996925,0,0,0.982467,-15.7307,-39.7789)">
            <path d="M858.37,437.449L858.37,742.802C858.37,827.067 790.95,895.479 707.907,895.479L406.982,895.479C323.939,895.479 256.519,827.067 256.519,742.802L256.519,437.449C256.519,353.184 323.939,284.772 406.982,284.772L707.907,284.772C790.95,284.772 858.37,353.184 858.37,437.449Z" style="fill:white;stroke:black;stroke-width:36.42px;"/>
        </g>
        <g transform="matrix(1.0001,0,0,1.02104,-24.5005,-31.9866)">
            <ellipse cx="564.443" cy="560.201" rx="155.234" ry="152.051" style="fill:white;stroke:black;stroke-width:35.67px;"/>
        </g>
        <g transform="matrix(1.08054,0,0,0.964077,-55.9953,45.748)">
            <ellipse cx="718.387" cy="325.702" rx="23.137" ry="25.932" style="stroke:black;stroke-width:35.2px;"/>
        </g>
    </g>
</svg>
